<?xml version="1.0" encoding="utf-8"?>
<!-- Generator: Adobe Illustrator 15.0.0, SVG Export Plug-In . SVG Version: 6.00 Build 0)  -->
<!DOCTYPE svg PUBLIC "-//W3C//DTD SVG 1.1//EN" "http://www.w3.org/Graphics/SVG/1.1/DTD/svg11.dtd">
<svg version="1.1" xmlns="http://www.w3.org/2000/svg" xmlns:xlink="http://www.w3.org/1999/xlink" x="0px" y="0px" width="64px"
	 height="64px" viewBox="0 0 64 64" enable-background="new 0 0 64 64" xml:space="preserve">
<g id="Calque_1" display="none">
	
		<image display="inline" overflow="visible" width="64" height="64" xlink:href="icon-64.png"  transform="matrix(0.9999 0 0 0.9999 0 0.0078)">
	</image>
</g>
<g id="Calque_2">
	<path fill="#0F65DA" d="M2,2v60h60V2H2z M58,58H6V6h52V58z"/>
	<path fill="#0F65DA" d="M10,10v32h44V10H10z M50,38H14V14h36V38z"/>
	<path fill="#0F65DA" d="M18,18v16h14V18H18z M28,30h-6v-8h6V30z"/>
	<g>
		<path fill="#0F65DA" d="M7.778,53.406l2.076-0.252c0.066,0.529,0.244,0.935,0.534,1.214c0.29,0.28,0.641,0.42,1.053,0.42
			c0.443,0,0.815-0.168,1.118-0.504s0.454-0.788,0.454-1.358c0-0.539-0.145-0.967-0.435-1.282s-0.644-0.474-1.061-0.474
			c-0.274,0-0.603,0.054-0.984,0.16l0.236-1.747c0.58,0.015,1.023-0.109,1.328-0.377c0.306-0.267,0.458-0.623,0.458-1.065
			c0-0.377-0.112-0.677-0.336-0.901c-0.224-0.224-0.521-0.336-0.893-0.336c-0.367,0-0.68,0.128-0.939,0.382
			c-0.26,0.255-0.417,0.626-0.473,1.114l-1.977-0.336c0.138-0.677,0.345-1.216,0.622-1.62s0.664-0.723,1.16-0.954
			s1.052-0.349,1.668-0.349c1.053,0,1.898,0.336,2.534,1.008c0.524,0.549,0.786,1.17,0.786,1.862c0,0.981-0.537,1.766-1.61,2.351
			c0.641,0.138,1.154,0.445,1.538,0.924c0.384,0.478,0.576,1.056,0.576,1.732c0,0.981-0.359,1.818-1.076,2.511
			s-1.61,1.038-2.679,1.038c-1.012,0-1.852-0.29-2.519-0.873C8.271,55.111,7.885,54.348,7.778,53.406z"/>
	</g>
</g>
</svg>
